<svg width="20" height="20" viewBox="0 0 20 20" fill="none" xmlns="http://www.w3.org/2000/svg">
<path fill-rule="evenodd" clip-rule="evenodd" d="M7.6 2.79999C4.94903 2.79999 2.8 4.94903 2.8 7.59999C2.8 10.251 4.94903 12.4 7.6 12.4C10.251 12.4 12.4 10.251 12.4 7.59999C12.4 4.94903 10.251 2.79999 7.6 2.79999ZM0.400002 7.59999C0.400002 3.62354 3.62355 0.399994 7.6 0.399994C11.5765 0.399994 14.8 3.62354 14.8 7.59999C14.8 9.15499 14.3071 10.5949 13.4689 11.7718L19.2485 17.5515C19.7172 18.0201 19.7172 18.7799 19.2485 19.2485C18.7799 19.7172 18.0201 19.7172 17.5515 19.2485L11.7718 13.4689C10.5949 14.307 9.155 14.8 7.6 14.8C3.62355 14.8 0.400002 11.5764 0.400002 7.59999Z" fill="#B3B4B8"/>
</svg>
